# xmcd
#
# Track frame offsets: 
#        150
#        19917
#        43006
#        62090
#        84803
#        113201
#        134138
#        157827
#        180714
#        203420
#        233482
#
# Disc length: 3551 seconds
#
# Revision: 0
# Processed by: cddbd v1.5.2PL0 Copyright (c) Steve Scherf et al.
# Submitted via: ExactAudioCopy v1.3
#
DISCID=850ddd0b
DTITLE=George Foster - Divine Soul Ride
DYEAR=2018
DGENRE=Blues Rock
TTITLE0=Dancin' With The Devil
TTITLE1=I Did My Time
TTITLE2=My Cheatin' Ways
TTITLE3=Brand New Dancer
TTITLE4=Evangeline
TTITLE5=Secrets
TTITLE6=Hard Times
TTITLE7=Shot Down
TTITLE8=Soul Ride
TTITLE9=Maharishi Says...yer Ship
TTITLE10=The Fields Of Aberdare
EXTD=
EXTT0=
EXTT1=
EXTT2=
EXTT3=
EXTT4=
EXTT5=
EXTT6=
EXTT7=
EXTT8=
EXTT9=
EXTT10=
PLAYORDER=
